<?xml version="1.0" encoding="UTF-8"?>
<svg version="1.1" viewBox="0 0 1000 199" xmlns="http://www.w3.org/2000/svg">
<g transform="translate(-.60606 -.20642)">
<svg width="1e3" height="199" data-background-color="#d2d6dc" viewBox="0 0 396 79" xmlns="http://www.w3.org/2000/svg" xmlns:xlink="http://www.w3.org/1999/xlink">
<g transform="translate(.24 .081946)">
<svg width="395.52" height="78.836" viewBox="0 0 395.52 78.83610876045626">
<svg width="395.52" height="78.836" viewBox="0 0 549.642663834768 109.55625208703648">
<rect class="rect-o-0" x="128.26" y="7.2139" width="7.149" height="95.128" rx="1%" fill="#636365" stroke="transparent" stroke-width="0" data-fill-palette-color="primary" data-palette-color="#636365"/>
<g transform="translate(154.12 15.141)">
<svg width="395.52" height="79.274" viewBox="0 0 395.52 79.27369904995403">
<svg width="395.52" height="79.274" viewBox="0 0 395.52 79.27369904995403">
<svg width="395.52" height="79.274" viewBox="0 0 395.52 79.27369904995403">
<g>
<svg width="395.52" height="79.274" data-palette-color="#636365" viewBox="1.75 -32.099998474121094 163.1300048828125 32.69999694824219">
<path class="wordmark-text-0" d="m14.7 0h-12.95v-0.9h2.35q0.7 0 0.7-0.6v-28.5q0-0.6-0.7-0.6h-2.35v-0.9h11.7q3.75 0 6.43 2.05 2.67 2.05 2.67 5.3 0 2.5-1.32 4.37-1.33 1.88-3.53 2.83 3.15 0.7 5.13 2.85 1.97 2.15 1.97 5.72 0 3.58-2.95 5.98t-7.15 2.4zm-0.25-16.05h-5.55v14.65h5.55q3 0 4.68-2.2 1.67-2.2 1.67-5.15t-1.67-5.13q-1.68-2.17-4.68-2.17zm-2.05-14.05h-3.5v12.8h3.8q2.95 0 4.4-2t1.45-4.68q0-2.67-1.5-4.4-1.5-1.72-4.65-1.72zm17.95 28.5v-28.4q0-0.6-0.7-0.6h-2.35v-0.9h10.2v0.9h-2.35q-0.7 0-0.7 0.6v28.4q0 0.7 0.7 0.7h2.35v0.9h-10.2v-0.9h2.35q0.7 0 0.7-0.7zm14.62-2.15q-3.97-4.35-3.97-12t3.97-12q3.98-4.35 10.35-4.35 6.38 0 10.35 4.35 3.98 4.35 3.98 12t-3.98 12q-3.97 4.35-10.35 4.35-6.37 0-10.35-4.35zm3.15-23q-2.87 4.05-2.87 11t2.87 11q2.88 4.05 7.18 4.05t7.2-4.05 2.9-11-2.9-11-7.2-4.05-7.18 4.05zm52.82 26.75h-15.3v-0.9h2.35q0.7 0 0.7-0.7v-28.4q0-0.6-0.7-0.6h-2.35v-0.9h10.2v0.9h-2.35q-0.7 0-0.7 0.6v28.6h9.95q1.3 0 1.4-1.1l0.75-5.85h1.15v2.35q0 4.4 0.45 6.45-1.6-0.45-5.55-0.45zm32.45 0h-1.6l-18.8-27.9v26.3q0 0.7 0.7 0.7h2.35v0.9h-7.8v-0.9h2.35q0.7 0 0.7-0.7v-28.4q0-0.6-0.7-0.6h-2.35v-0.9h7.35l16.1 23.8v-22.2q0-0.7-0.7-0.7h-2.35v-0.9h7.8v0.9h-2.35q-0.7 0-0.7 0.6v30zm9.35-1.6v-28.4q0-0.6-0.71-0.6h-2.34v-0.9h10.19v0.9h-2.35q-0.69 0-0.69 0.6v28.4q0 0.7 0.69 0.7h2.35v0.9h-10.19v-0.9h2.34q0.71 0 0.71-0.7zm15.79-7.15 1.16 4.6q0.75 3.1 2.4 3.1 0.85 0 1.32-0.63 0.47-0.62 0.47-1.5 0-0.87-0.14-1.62l0.95-0.15q0.19 0.75 0.19 1.65 0 1.8-1.07 2.85t-2.78 1.05q-4.19 0-5.5-5.35l-1.15-4.6q-0.85-3.25-2.35-4.53-1.5-1.27-4.25-1.27v-1.1l11.81-14.35h-2.5v-0.9h6.79v0.9h-1.35q-0.79 0-1.4 0.7l-11.19 13.55q3.84 0.05 5.8 2.1 1.95 2.05 2.79 5.5z" fill="#636365" data-fill-palette-color="primary"/>
</svg>
</g>
</svg>
</svg>
</svg>
</g>
<svg width="109.54" height="109.56" viewBox="0 0 109.54444429015177 109.55625208703648">
<svg class="icon-icon-0" width="109.54" height="109.56" enable-background="new 0 0 100 100" data-fill-palette-color="accent" version="1.1" viewBox="13.4818754196167 13.473999977111816 73.04512786865234 73.0530014038086" xml:space="preserve" xmlns="http://www.w3.org/2000/svg" xmlns:xlink="http://www.w3.org/1999/xlink"><g fill="#89939e" data-fill-palette-color="accent"><path d="m81.842 18.16c-3.021-3.022-7.038-4.686-11.312-4.686-4.272 0-8.29 1.664-11.312 4.686l-14.75 14.752c-1.562 1.562-1.562 4.095 0 5.657s4.096 1.562 5.656 0l14.752-14.752c1.51-1.51 3.518-2.342 5.653-2.342s4.144 0.832 5.654 2.343c1.51 1.51 2.342 3.517 2.342 5.653s-0.832 4.144-2.342 5.654l-14.75 14.75c-1.562 1.562-1.562 4.095 0 5.657 0.781 0.781 1.805 1.172 2.828 1.172 1.022 0 2.048-0.391 2.828-1.172l14.752-14.752c3.021-3.021 4.686-7.038 4.686-11.311-1e-3 -4.273-1.665-8.289-4.685-11.309z" data-fill-palette-color="accent"/><path d="m49.875 61.433-14.753 14.752c-1.51 1.51-3.517 2.342-5.653 2.342-2.135 0-4.143-0.832-5.654-2.342-3.116-3.117-3.116-8.19 0-11.309l14.752-14.751c1.563-1.562 1.563-4.095 0-5.657-1.56-1.562-4.095-1.562-5.655 0l-14.754 14.752c-6.235 6.237-6.235 16.385 1e-3 22.621 3.021 3.021 7.038 4.686 11.31 4.686 4.273 0 8.29-1.664 11.311-4.686l14.752-14.752c1.562-1.562 1.562-4.095 0-5.656-1.561-1.563-4.096-1.563-5.657 0z" data-fill-palette-color="accent"/><path d="m35.985 64.016c0.78 0.781 1.805 1.172 2.828 1.172s2.048-0.391 2.828-1.172l22.374-22.374c1.562-1.562 1.562-4.095 0-5.657-1.561-1.562-4.096-1.562-5.656 0l-22.374 22.374c-1.562 1.562-1.562 4.095 0 5.657z" data-fill-palette-color="accent"/></g></svg>
</svg>
</svg>
</svg>
<rect width="395.52" height="78.836" fill="none" visibility="hidden"/>
</g>
</svg>
</g>
</svg>
